<?xml version="1.0" standalone="no"?>
<!DOCTYPE svg PUBLIC "-//W3C//DTD SVG 20010904//EN"
 "http://www.w3.org/TR/2001/REC-SVG-20010904/DTD/svg10.dtd">
<svg version="1.0" xmlns="http://www.w3.org/2000/svg"
 width="300.000000pt" height="263.000000pt" viewBox="0 0 300.000000 263.000000"
 preserveAspectRatio="xMidYMid meet">
<metadata>
Created by potrace 1.10, written by Peter Selinger 2001-2011
</metadata>
<g transform="translate(0.000000,263.000000) scale(0.100000,-0.100000)"
fill="#000000" stroke="none">
<path d="M43 2622 c-32 -3 -33 -5 -33 -47 0 -38 11 -55 35 -55 4 0 35 104 32
105 -1 0 -17 -1 -34 -3z"/>
<path d="M517 2623 c-15 -2 -25 -8 -22 -13 8 -13 -22 -31 -53 -32 -16 -1 -50
9 -74 21 -24 11 -58 21 -74 21 -27 0 -31 -5 -53 -65 -14 -36 -29 -65 -34 -65
-13 0 1 51 23 82 15 21 17 28 6 37 -10 8 -18 -5 -36 -60 -19 -58 -20 -73 -9
-79 11 -7 9 -19 -9 -62 -12 -29 -22 -59 -22 -66 0 -8 -7 -11 -18 -8 -14 5 -21
-4 -37 -49 -10 -30 -22 -55 -27 -55 -5 0 -4 -9 2 -20 6 -12 7 -20 1 -20 -5 0
-17 -24 -26 -52 -10 -29 -23 -58 -30 -63 -6 -6 -15 -37 -19 -70 l-7 -60 46 88
c70 134 114 199 207 306 54 62 156 160 213 204 47 36 86 64 101 74 18 11 18
12 -1 11 -11 -1 -32 -3 -48 -5z m-167 -32 c3 -3 12 -7 20 -9 8 -2 17 -8 18
-13 2 -5 11 -9 20 -10 11 0 13 -2 4 -6 -10 -4 -10 -8 -2 -19 10 -11 2 -14 -42
-20 -29 -4 -48 -9 -42 -11 13 -4 6 -53 -8 -53 -5 0 -7 -4 -4 -9 3 -5 -8 -14
-24 -20 -17 -5 -33 -18 -37 -28 -8 -22 -45 -63 -57 -63 -5 0 -3 7 4 15 9 11 9
15 1 15 -9 0 -9 5 -1 21 7 13 17 18 27 15 13 -5 14 -4 3 9 -10 12 -10 15 1 15
11 0 11 2 1 8 -13 9 -7 41 10 53 5 3 10 17 11 30 1 13 13 41 26 62 19 31 27
36 45 31 11 -4 23 -9 26 -13z"/>
<path d="M2286 2622 c5 -5 45 -36 89 -69 72 -54 126 -106 254 -242 23 -24 41
-47 41 -51 0 -5 6 -15 13 -22 57 -57 168 -274 222 -433 54 -157 70 -274 69
-490 0 -177 -3 -214 -26 -320 -42 -191 -124 -384 -236 -553 -30 -46 -68 -99
-86 -117 -17 -18 -49 -52 -71 -76 -46 -51 -190 -179 -200 -179 -5 0 -63 -40
-89 -62 -5 -4 14 -5 43 -1 39 4 60 13 84 36 18 17 27 27 20 24 -6 -4 -14 -3
-17 2 -9 14 88 51 136 52 24 0 61 4 83 9 32 7 24 8 -43 6 -81 -2 -114 6 -69
18 12 3 66 9 120 12 53 4 97 10 97 14 0 4 -40 5 -89 3 -51 -3 -91 -1 -95 5 -5
9 30 13 244 29 56 4 77 9 63 14 -11 4 -51 4 -89 -1 -90 -11 -182 -15 -190 -7
-6 6 67 29 83 26 26 -4 123 2 123 9 0 4 -39 6 -87 4 -62 -2 -85 0 -78 7 6 6
53 13 105 15 166 8 280 19 280 27 0 5 -18 7 -40 4 -137 -13 -298 -17 -304 -6
-5 7 5 11 31 12 23 1 29 3 16 6 -13 2 -23 8 -23 13 0 12 55 19 162 21 53 1 95
6 92 11 -3 5 -58 6 -122 3 -100 -4 -114 -3 -94 8 12 7 19 16 16 20 -4 4 11 7
34 7 22 0 43 4 46 8 2 4 -11 6 -30 4 -46 -6 -43 12 4 25 33 9 34 11 10 12 -16
0 -28 3 -28 6 0 10 34 42 50 48 12 4 11 6 -2 6 -37 2 -16 19 35 28 49 9 49 12
4 27 -17 6 -17 8 2 43 25 46 45 95 43 106 -1 4 7 25 18 47 11 21 20 46 20 55
0 9 7 18 15 21 16 7 21 34 6 34 -5 0 -7 9 -4 20 5 17 8 18 20 8 10 -8 11 -14
4 -16 -6 -2 -8 -9 -4 -15 8 -13 6 -245 -3 -290 -5 -23 -10 -27 -26 -21 -14 4
-18 2 -14 -5 4 -6 16 -11 27 -11 12 0 19 -7 19 -20 0 -11 -4 -20 -8 -20 -13 0
-11 -34 2 -42 8 -6 6 -11 -4 -18 -12 -8 -11 -10 8 -10 l22 0 3 378 c3 540 -1
805 -14 813 -8 5 -8 8 0 13 6 4 11 25 11 47 0 37 -2 39 -20 29 -12 -7 -20 -7
-20 -1 0 5 9 13 20 16 27 9 25 32 -5 58 -15 13 -28 37 -32 60 -6 37 -5 37 28
38 32 0 33 1 12 11 -22 11 -28 26 -24 58 1 8 5 40 9 71 8 59 2 65 -37 35 -25
-20 -85 -44 -95 -39 -5 3 -1 10 8 15 9 5 14 14 10 19 -3 5 -2 9 3 8 4 -1 19 2
32 8 22 9 22 10 6 17 -11 4 -22 2 -27 -6 -6 -10 -8 -10 -8 1 0 9 -8 11 -25 7
-28 -7 -34 8 -7 19 15 6 14 8 -6 16 -20 7 -22 13 -16 49 6 34 4 40 -11 40 -14
0 -15 -3 -5 -15 12 -15 6 -35 -12 -35 -14 0 -37 31 -38 49 0 8 -14 27 -32 43
-30 26 -30 28 -9 28 12 0 35 -7 51 -15 25 -13 29 -13 34 1 8 21 8 26 -2 20
-11 -7 -117 20 -115 30 1 5 5 17 8 27 6 14 2 17 -21 17 -16 0 -36 5 -44 11
-11 7 11 8 75 4 49 -4 88 -5 85 -2 -3 3 -45 10 -95 17 -82 10 -115 22 -115 39
0 4 34 4 76 0 43 -4 85 -4 98 2 17 7 15 8 -10 4 -21 -4 -35 -1 -44 10 -15 18
-45 21 -34 3 5 -8 2 -9 -12 -4 -40 16 -77 25 -85 20 -9 -5 -42 11 -72 36 -18
14 -18 15 0 21 16 6 14 8 -9 18 -38 15 -35 22 7 18 20 -3 38 -1 40 3 6 9 -30
20 -65 20 -14 0 -51 9 -83 20 -60 21 -87 26 -71 12z m649 -602 c7 -24 -1 -40
-20 -40 -9 0 -12 -6 -9 -15 4 -8 1 -15 -5 -15 -6 0 -11 5 -11 10 0 6 -8 10
-17 10 -16 1 -16 2 1 15 17 13 18 15 3 15 -24 0 -21 15 6 28 33 16 45 14 52
-8z m-8 -95 c-4 -8 -17 -15 -29 -15 l-23 0 25 20 c27 20 36 19 27 -5z"/>
<path d="M600 2585 c-25 -19 -51 -35 -57 -35 -7 0 -13 -3 -13 -8 0 -4 -23 -25
-51 -47 -64 -50 -167 -152 -216 -213 -21 -26 -44 -51 -50 -55 -7 -4 -13 -13
-13 -19 0 -6 -11 -25 -24 -43 -28 -36 -98 -166 -93 -171 2 -2 30 40 62 94 77
129 124 189 236 299 97 94 146 134 237 192 28 18 52 35 52 37 0 13 -31 -1 -70
-31z"/>
<path d="M2650 2610 c331 -23 340 -23 340 -6 0 14 -24 16 -222 14 -191 -1
-208 -2 -118 -8z"/>
<path d="M1382 2575 c-15 -17 -12 -36 7 -51 8 -6 12 -20 8 -33 -3 -11 -1 -21
4 -21 9 0 12 9 13 50 1 17 8 26 26 30 14 3 26 14 28 23 2 12 -1 15 -12 11 -9
-3 -13 -11 -10 -18 3 -6 -1 -3 -9 7 -17 20 -37 21 -55 2z"/>
<path d="M1520 2582 c0 -8 9 -25 20 -39 13 -17 20 -21 20 -10 0 19 -39 67 -40
49z"/>
<path d="M2530 2569 c0 -5 9 -9 21 -9 16 0 19 -4 14 -19 -4 -15 -1 -20 12 -19
10 1 30 -2 46 -5 39 -10 33 1 -10 20 -51 21 -25 29 44 13 38 -9 57 -10 64 -3
8 8 -14 13 -73 18 -45 4 -91 9 -100 11 -10 1 -18 -1 -18 -7z"/>
<path d="M2898 2543 c45 -2 82 -6 82 -8 0 -17 -35 -42 -53 -37 -14 3 -18 1
-13 -6 4 -7 23 -12 42 -12 32 0 34 2 34 35 l0 35 -87 -2 -88 -2 83 -3z"/>
<path d="M1177 2526 c-19 -15 -15 -38 14 -67 20 -20 35 -13 18 8 -9 10 -5 14
20 19 21 5 31 12 31 25 0 24 -20 25 -21 2 0 -14 -3 -13 -11 5 -13 25 -25 27
-51 8z"/>
<path d="M1326 2510 c4 -14 7 -31 7 -37 0 -7 6 -13 14 -13 7 0 13 11 13 27 0
14 -3 23 -7 20 -3 -4 -12 1 -20 11 -13 15 -13 15 -7 -8z"/>
<path d="M1083 2494 c-17 -18 -16 -24 3 -24 9 0 23 -8 30 -17 13 -17 13 -17
14 0 0 9 -4 17 -10 17 -5 0 -10 6 -10 14 0 21 -13 26 -27 10z"/>
<path d="M2072 2492 c2 -10 15 -18 31 -20 36 -4 34 11 -4 25 -26 10 -30 10
-27 -5z"/>
<path d="M2810 2500 c36 -12 62 -12 55 0 -3 6 -23 10 -43 9 -33 -1 -34 -2 -12
-9z"/>
<path d="M1970 2463 c0 -11 52 -34 59 -27 8 7 -29 34 -46 34 -7 0 -13 -3 -13
-7z"/>
<path d="M1860 2435 c-19 -20 -20 -25 -7 -25 9 0 21 9 27 21 17 31 7 33 -20 4z"/>
<path d="M2760 2448 c0 -4 6 -8 13 -8 8 0 7 -4 -3 -10 -12 -8 -10 -10 9 -10
17 0 22 4 17 16 -5 14 -1 16 26 10 24 -4 29 -3 18 4 -17 11 -80 10 -80 -2z"/>
<path d="M1146 2435 c4 -8 11 -15 17 -15 6 0 7 -3 4 -7 -4 -3 1 -15 10 -25 13
-15 14 -21 5 -27 -9 -6 -7 -13 8 -31 11 -13 20 -30 20 -39 0 -10 9 -17 20 -18
11 -1 20 2 20 8 0 5 -5 9 -12 9 -6 0 -8 3 -5 6 4 4 13 1 22 -6 10 -8 15 -9 15
-1 0 6 -11 13 -25 17 -14 3 -25 12 -25 20 0 8 -6 14 -12 14 -10 0 -10 2 -1 8
20 13 -29 102 -57 102 -5 0 -7 -7 -4 -15z"/>
<path d="M861 2424 c-1 -27 17 -42 47 -39 14 1 29 -7 38 -19 8 -11 14 -15 14
-8 0 6 7 12 15 12 9 0 12 -6 9 -15 -7 -17 13 -20 35 -6 25 16 -7 43 -45 39
-29 -3 -33 -1 -40 27 -6 27 -7 28 -11 8 -3 -14 -12 -23 -22 -23 -10 0 -23 10
-29 23 -11 22 -11 22 -11 1z"/>
<path d="M1119 2425 c-1 -3 -2 -9 -3 -14 0 -5 -4 -13 -8 -16 -4 -4 -1 -17 7
-27 7 -11 11 -28 7 -37 -5 -13 -3 -13 13 2 14 15 15 21 6 27 -9 5 -11 18 -6
39 4 20 3 31 -4 31 -6 0 -12 -2 -12 -5z"/>
<path d="M1815 2398 c-4 -15 -16 -30 -26 -33 -10 -4 -19 -11 -19 -16 0 -16 20
-9 46 16 19 19 23 29 15 42 -8 16 -10 14 -16 -9z"/>
<path d="M2000 2420 c-1 -3 -3 -17 -5 -32 -3 -22 0 -28 16 -28 16 0 18 4 11
18 -5 9 -12 24 -15 32 -3 8 -6 13 -7 10z"/>
<path d="M13 2363 c1 -14 11 -18 47 -20 43 -2 44 -1 20 11 -49 26 -69 29 -67
9z"/>
<path d="M1246 2372 c-2 -4 -1 -14 5 -22 5 -8 9 -11 9 -6 0 5 11 -1 24 -13 26
-25 56 -20 35 5 -6 8 -18 14 -26 14 -7 0 -16 7 -19 15 -7 16 -20 20 -28 7z"/>
<path d="M2805 2339 c28 -11 67 -11 85 1 10 6 -4 9 -45 8 -41 0 -54 -3 -40 -9z"/>
<path d="M961 2327 c-1 -14 -6 -17 -21 -12 -12 4 -20 2 -20 -5 0 -6 5 -8 10
-5 6 4 10 -6 10 -23 0 -22 -6 -31 -22 -36 -17 -4 -20 -8 -11 -17 17 -17 55 7
52 34 -1 12 1 30 5 39 5 10 6 23 3 30 -3 8 -6 6 -6 -5z"/>
<path d="M2907 2327 c-7 -5 -2 -7 16 -4 15 2 27 0 27 -4 0 -5 9 -9 20 -9 11 0
20 7 20 15 0 12 -9 15 -35 13 -20 -1 -41 -6 -48 -11z"/>
<path d="M767 2301 l-29 -6 25 -23 25 -23 4 30 c3 17 4 30 4 30 -1 -1 -14 -4
-29 -8z"/>
<path d="M1982 2278 c-28 -43 -16 -58 15 -19 13 17 31 31 39 31 8 0 12 5 9 10
-12 20 -44 9 -63 -22z"/>
<path d="M1030 2293 c0 -7 6 -13 13 -14 6 0 -4 -5 -23 -12 -42 -15 -47 -42 -7
-42 15 1 27 -2 27 -5 0 -4 37 -33 83 -66 45 -32 114 -84 153 -116 39 -32 78
-58 88 -58 9 0 15 4 12 9 -3 5 1 11 9 15 8 3 15 0 15 -7 0 -7 5 -4 11 6 6 10
8 21 5 24 -3 4 -6 0 -6 -7 0 -9 -5 -8 -19 4 -18 17 -20 16 -26 -3 -6 -20 -25
-30 -25 -13 0 4 -18 22 -41 39 -22 17 -39 33 -38 35 2 1 -1 14 -5 28 -5 14 -8
29 -7 33 1 5 -3 6 -8 3 -5 -4 -19 6 -30 20 -24 30 -29 20 -6 -10 27 -36 15
-37 -38 -3 -30 19 -64 38 -76 42 -18 5 -22 13 -18 32 3 17 -3 33 -19 51 -13
15 -24 21 -24 15z"/>
<path d="M1105 2290 c-3 -5 -3 -14 0 -20 3 -5 1 -10 -6 -10 -8 0 -8 -4 1 -15
17 -21 29 -19 50 7 17 22 17 48 -1 48 -4 0 -6 -7 -3 -15 4 -8 1 -15 -5 -15 -6
0 -11 7 -11 15 0 17 -16 20 -25 5z"/>
<path d="M2898 2292 c13 -2 26 -10 29 -18 3 -8 11 -14 19 -14 16 0 19 -36 4
-45 -5 -3 -10 -15 -10 -26 0 -10 -4 -19 -9 -19 -4 0 -21 -12 -37 -27 l-29 -27
30 -7 c44 -10 75 -10 75 -1 0 4 -12 8 -27 7 -31 0 -42 20 -16 29 10 3 24 9 32
12 10 5 11 2 6 -7 -6 -11 -5 -12 6 -1 8 7 15 40 17 80 l4 67 -59 1 c-32 0 -48
-1 -35 -4z"/>
<path d="M2572 2241 c-12 -10 -22 -22 -22 -27 0 -13 47 -14 47 0 0 6 4 19 8
29 9 22 -6 22 -33 -2z"/>
<path d="M2870 2245 c0 -8 5 -15 12 -15 6 0 3 -9 -7 -20 -20 -22 -14 -40 8
-22 19 16 21 72 2 72 -8 0 -15 -7 -15 -15z"/>
<path d="M1555 2235 c-22 -7 -40 -16 -40 -21 0 -14 55 -13 63 1 4 7 14 14 22
17 33 11 -9 14 -45 3z"/>
<path d="M1973 2225 c-13 -6 -20 -15 -16 -18 10 -11 41 -8 49 4 11 18 -10 27
-33 14z"/>
<path d="M1805 2200 c-16 -16 -24 -30 -19 -30 6 0 23 14 39 30 16 17 24 30 19
30 -6 0 -23 -13 -39 -30z"/>
<path d="M654 2209 c-6 -11 13 -39 27 -39 5 0 9 9 9 19 0 21 -26 36 -36 20z"/>
<path d="M1211 2210 c-8 -4 5 -10 31 -15 66 -13 78 -13 84 -4 3 5 -2 9 -10 9
-9 0 -16 3 -16 8 0 10 -74 12 -89 2z"/>
<path d="M1380 2203 c0 -7 -7 -13 -15 -13 -8 0 -15 -5 -15 -11 0 -5 -6 -7 -12
-4 -7 4 -4 -1 7 -10 18 -14 20 -14 23 0 2 8 7 13 12 10 13 -8 20 9 9 25 -6 10
-9 11 -9 3z"/>
<path d="M1697 2175 c-8 -18 11 -31 25 -17 11 11 3 32 -12 32 -4 0 -10 -7 -13
-15z"/>
<path d="M1835 2180 c-8 -13 3 -30 18 -30 7 0 13 9 13 20 0 21 -20 27 -31 10z"/>
<path d="M1535 2145 c-16 -8 -41 -23 -55 -34 -24 -21 -25 -22 -6 -36 25 -19
56 -19 57 0 3 29 4 35 9 36 14 5 59 -16 92 -42 20 -16 41 -29 47 -29 17 0 50
-41 44 -55 -3 -10 2 -12 16 -8 27 7 27 7 -9 41 -16 16 -30 33 -30 38 0 5 -12
11 -27 12 -31 2 -53 25 -53 56 -1 19 -2 20 -13 4 -15 -18 -33 -12 -38 14 -4
15 -7 15 -34 3z"/>
<path d="M940 2141 c0 -6 5 -13 11 -16 6 -4 13 -15 17 -26 5 -12 12 -15 21
-10 11 7 10 13 -4 35 -17 25 -45 36 -45 17z"/>
<path d="M1080 2122 c0 -15 48 -54 54 -44 7 12 -22 52 -40 52 -8 0 -14 -4 -14
-8z"/>
<path d="M2976 2062 c-4 -41 -5 -76 -3 -79 7 -7 20 99 15 128 -2 13 -7 -9 -12
-49z"/>
<path d="M1400 2105 c0 -9 28 -67 62 -129 l62 -113 65 34 c37 19 77 42 91 52
l24 19 -24 -1 c-14 0 -40 3 -59 7 -26 6 -32 5 -29 -5 3 -8 11 -14 19 -14 8 0
14 -7 14 -15 0 -8 -9 -15 -20 -15 -14 0 -19 6 -17 18 3 19 -32 25 -43 7 -4 -6
-11 -8 -16 -4 -5 3 -7 9 -4 14 3 5 -19 33 -49 63 -38 38 -52 58 -46 67 11 17
4 30 -16 30 -8 0 -14 -7 -14 -15z"/>
<path d="M1010 2081 c0 -5 5 -13 11 -16 5 -4 8 -12 6 -18 -5 -16 37 -47 64
-47 l22 0 -24 26 c-33 35 -79 68 -79 55z"/>
<path d="M2304 2069 c-3 -6 -17 -8 -30 -5 -36 9 -31 -19 8 -38 38 -20 48 -20
48 -2 0 9 8 12 26 8 34 -6 25 12 -16 33 -20 10 -31 12 -36 4z"/>
<path d="M667 2063 c-2 -5 -7 -20 -11 -35 -7 -32 13 -40 21 -8 3 10 14 22 24
25 11 4 17 11 14 16 -7 11 -42 12 -48 2z"/>
<path d="M956 2061 c-3 -5 -15 -7 -26 -4 -24 6 -28 -22 -4 -31 18 -7 61 29 45
38 -5 4 -12 2 -15 -3z"/>
<path d="M1880 2039 c12 -21 25 -25 35 -10 6 10 -11 24 -32 27 -9 2 -10 -3 -3
-17z"/>
<path d="M2576 2044 c-10 -27 0 -28 46 -5 l43 21 -41 0 c-30 0 -44 -5 -48 -16z"/>
<path d="M1178 2037 c-16 -6 -28 -14 -28 -19 0 -12 38 -10 45 2 3 6 16 10 28
10 18 0 19 2 7 10 -17 11 -16 11 -52 -3z"/>
<path d="M2486 2042 c-8 -13 11 -35 23 -28 16 10 14 36 -3 36 -8 0 -17 -4 -20
-8z"/>
<path d="M1966 2003 c-6 -15 -8 -15 -17 -3 -6 10 -11 12 -16 4 -5 -6 -23 -19
-41 -29 -17 -11 -34 -27 -37 -36 -3 -9 -30 -34 -60 -55 -30 -21 -54 -42 -55
-45 0 -11 39 -18 42 -8 2 6 29 -15 61 -46 32 -30 62 -55 67 -55 5 0 15 10 21
22 10 18 8 24 -7 35 -29 21 -42 15 -14 -7 19 -15 21 -20 8 -20 -31 0 -48 12
-48 35 0 15 -7 25 -22 29 -17 4 -24 13 -25 36 -2 32 13 40 35 18 7 -7 12 -8
12 -4 0 5 -8 15 -17 22 -16 11 -16 13 -2 14 8 0 29 16 45 35 16 19 34 33 41
31 7 -3 15 -1 18 4 4 6 13 10 21 10 17 0 19 -27 2 -33 -7 -2 -9 -8 -5 -13 4
-5 12 -2 17 6 7 11 11 11 24 1 9 -8 16 -20 16 -27 0 -8 8 -23 17 -34 10 -11
18 -30 18 -42 0 -13 7 -24 18 -26 25 -5 21 21 -8 52 -14 15 -25 35 -25 45 0
10 -9 26 -20 36 -11 10 -20 29 -20 42 0 28 -34 33 -44 6z"/>
<path d="M1095 1980 c-16 -9 -31 -26 -33 -38 -2 -12 -8 -22 -13 -22 -5 0 -9
-7 -9 -17 0 -15 1 -15 18 0 10 10 24 17 30 17 6 0 24 12 41 28 28 25 29 28 13
38 -13 8 -25 7 -47 -6z"/>
<path d="M53 1953 c-33 -78 -43 -107 -42 -122 0 -13 1 -13 6 -1 2 8 11 29 18
45 33 76 43 105 37 105 -4 0 -12 -12 -19 -27z"/>
<path d="M480 1961 c0 -21 26 -36 36 -20 6 11 -13 39 -27 39 -5 0 -9 -9 -9
-19z"/>
<path d="M1200 1926 c0 -9 9 -20 21 -26 28 -15 10 -36 -42 -50 -23 -6 -37 -15
-33 -21 10 -16 68 -4 108 23 40 27 38 31 -26 71 -24 15 -28 15 -28 3z"/>
<path d="M1348 1913 c-23 -6 -23 -20 1 -33 28 -14 41 -13 41 6 0 8 5 12 10 9
6 -3 10 -2 10 3 0 6 -7 13 -16 16 -17 6 -19 6 -46 -1z"/>
<path d="M978 1837 c-43 -39 -65 -81 -67 -129 -2 -42 -6 -48 -37 -58 -32 -11
-61 -36 -52 -45 2 -2 26 1 53 8 l50 12 11 83 c8 51 19 91 30 103 42 47 133 1
119 -61 -6 -29 6 -42 20 -20 3 6 14 10 24 10 10 0 25 8 32 17 10 12 10 15 1 9
-12 -7 -82 29 -82 43 0 15 51 51 73 52 18 1 17 2 -8 10 -21 6 -38 4 -59 -6
-25 -13 -31 -13 -45 -1 -14 13 -22 9 -63 -27z"/>
<path d="M1300 1860 c0 -6 -7 -10 -16 -10 -21 0 -12 -24 11 -28 29 -6 47 31
20 42 -8 3 -15 1 -15 -4z"/>
<path d="M1450 1859 c-8 -4 -27 -10 -41 -13 l-27 -6 27 -29 c20 -23 28 -26 34
-15 4 8 5 19 2 25 -4 6 1 16 11 24 22 15 17 27 -6 14z"/>
<path d="M1998 1860 c-1 -5 -15 -11 -30 -12 -15 -1 -24 -5 -20 -9 12 -12 72 2
72 17 0 16 -17 19 -22 4z"/>
<path d="M726 1845 c4 -8 17 -15 30 -15 15 0 24 6 24 15 0 10 -10 15 -30 15
-22 0 -28 -4 -24 -15z"/>
<path d="M1508 1813 c-10 -2 -18 -8 -18 -11 0 -12 51 -31 66 -25 19 7 18 29
-2 37 -17 6 -19 6 -46 -1z"/>
<path d="M1656 1800 c-58 -29 -68 -40 -55 -57 7 -7 9 -16 6 -20 -8 -8 21 -63
33 -63 6 0 10 -4 10 -9 0 -5 -9 -7 -19 -4 -20 5 -54 63 -49 83 2 7 -20 12 -60
13 -34 1 -62 1 -62 -1 0 -2 15 -24 33 -50 17 -25 35 -51 39 -56 5 -7 11 -7 19
1 10 10 9 14 -4 19 -17 6 -25 64 -9 64 11 0 42 -34 42 -45 0 -5 17 -24 37 -42
27 -25 38 -31 45 -21 13 21 9 41 -17 83 -31 50 -33 79 -5 71 56 -16 65 -17 50
-7 -24 17 9 14 44 -4 39 -21 54 -7 17 16 -17 10 -31 26 -31 34 0 20 -17 18
-64 -5z"/>
<path d="M1940 1813 c8 -4 21 -13 29 -20 10 -10 17 -11 24 -4 19 19 30 12 25
-14 -4 -17 -1 -25 8 -25 16 0 19 46 5 54 -5 4 -31 8 -58 10 -26 2 -41 2 -33
-1z"/>
<path d="M2062 1790 c11 -17 10 -22 0 -29 -8 -5 -19 -19 -26 -32 -17 -35 -46
-37 -46 -5 0 24 -3 26 -27 20 -41 -10 -45 -14 -32 -30 6 -8 8 -14 3 -14 -5 -1
3 -8 19 -16 15 -8 32 -12 37 -9 6 4 9 3 8 -2 -3 -10 29 -70 42 -78 6 -3 10 5
10 19 0 16 -7 27 -20 31 -19 6 -19 8 -5 36 15 29 35 39 35 18 0 -5 5 -7 10 -4
7 4 7 12 0 25 -7 13 -7 21 0 25 16 10 12 65 -5 65 -13 0 -13 -3 -3 -20z"/>
<path d="M740 1786 c0 -36 -35 -87 -62 -93 -29 -6 -39 -23 -14 -23 8 0 16 -6
19 -12 2 -7 14 7 27 31 12 25 32 52 43 62 20 15 20 17 4 33 -15 15 -17 15 -17
2z"/>
<path d="M2334 1778 c-12 -19 -22 -88 -13 -88 5 0 13 9 19 20 6 11 16 17 25
14 8 -4 15 -1 15 5 0 6 -8 11 -17 11 -15 0 -14 4 6 19 21 16 21 19 6 24 -24
10 -33 9 -41 -5z"/>
<path d="M996 1752 c-9 -16 10 -28 33 -22 l24 5 -26 12 c-15 7 -28 9 -31 5z"/>
<path d="M1299 1748 c-2 -26 3 -53 12 -62 5 -6 9 -18 9 -28 0 -20 44 -42 67
-34 19 8 16 -4 -4 -20 -17 -13 -17 -15 0 -25 9 -5 15 -15 12 -20 -4 -5 -11 -7
-16 -4 -23 15 -6 -6 23 -26 17 -13 28 -17 24 -10 -6 10 -3 11 13 6 27 -8 27 3
-1 32 -12 13 -23 29 -24 36 -1 6 -4 23 -7 36 -2 14 -12 25 -23 27 -24 4 -64
49 -64 74 0 21 -19 38 -21 18z"/>
<path d="M1238 1716 c-24 -18 -22 -27 5 -22 12 1 23 10 25 19 4 20 -7 21 -30
3z"/>
<path d="M1770 1721 c0 -5 7 -14 15 -21 8 -7 15 -21 15 -31 0 -10 10 -21 23
-25 21 -7 21 -7 2 -14 -18 -7 -19 -8 -2 -15 9 -4 17 -14 17 -22 0 -20 52 -93
66 -93 16 0 44 -73 44 -115 0 -24 7 -39 22 -49 34 -24 44 -19 19 8 -12 13 -24
39 -26 57 -2 19 -8 49 -14 68 -6 19 -8 37 -6 41 3 5 -4 6 -15 3 -14 -4 -21 1
-26 21 -3 15 -4 35 -1 46 3 13 0 20 -9 20 -7 0 -19 10 -25 23 -7 12 -17 25
-23 29 -20 13 35 45 67 39 5 -1 6 3 2 9 -6 9 -58 5 -77 -6 -4 -3 -18 4 -30 15
-23 22 -38 27 -38 12z"/>
<path d="M2500 1682 c0 -4 14 -16 31 -26 23 -14 30 -15 27 -5 -3 8 -11 13 -17
12 -6 -2 -11 4 -11 12 0 8 -7 15 -15 15 -8 0 -15 -4 -15 -8z"/>
<path d="M1915 1651 c-6 -11 32 -41 52 -41 21 0 15 16 -12 34 -28 19 -32 19
-40 7z"/>
<path d="M1183 1633 c-4 -10 -11 -21 -17 -25 -6 -4 0 -8 14 -9 38 -3 44 -4 55
-11 6 -3 19 -2 30 3 11 4 14 8 7 8 -7 1 -10 6 -7 11 3 6 -1 10 -10 10 -9 0
-13 -5 -9 -11 4 -7 1 -10 -7 -7 -8 2 -18 14 -24 26 -12 27 -23 28 -32 5z"/>
<path d="M2062 1623 c2 -10 14 -20 28 -22 25 -3 25 -3 6 18 -23 26 -39 27 -34
4z"/>
<path d="M190 1617 c0 -21 12 -28 27 -16 19 16 16 29 -7 29 -11 0 -20 -6 -20
-13z"/>
<path d="M687 1616 c-5 -13 28 -49 50 -52 17 -3 49 23 40 32 -4 5 -17 2 -29
-5 -17 -11 -22 -11 -29 1 -5 7 -9 19 -9 26 0 16 -17 15 -23 -2z"/>
<path d="M969 1590 c25 -21 61 -27 61 -10 0 12 -43 30 -68 30 -14 -1 -12 -4 7
-20z"/>
<path d="M1099 1566 c-8 -17 -26 -28 -68 -39 -129 -35 -146 -40 -156 -49 -7
-6 -4 -13 8 -19 9 -6 17 -19 17 -29 0 -11 4 -20 8 -20 5 0 14 -10 20 -22 9
-19 11 -20 11 -5 1 10 -4 27 -9 38 -8 13 -7 26 1 41 8 15 14 18 17 10 3 -10 7
-10 18 -1 11 9 14 9 14 0 0 -7 4 -9 10 -6 5 3 15 -6 22 -20 10 -22 13 -24 21
-10 6 12 3 23 -12 39 -27 28 -27 36 0 29 12 -4 25 0 29 8 23 37 103 -65 103
-132 0 -17 -6 -35 -14 -40 -10 -6 -11 -9 -1 -9 7 0 18 11 24 25 6 14 15 25 20
25 4 0 8 5 8 11 0 5 -4 8 -9 5 -11 -7 -22 45 -14 73 3 11 11 21 18 21 7 0 18
7 25 15 7 8 30 20 51 27 52 15 49 26 -6 24 -38 -1 -47 -5 -51 -23 -8 -30 -67
-42 -101 -20 -21 13 -15 29 7 22 27 -9 49 10 43 35 -7 28 -41 25 -54 -4z"/>
<path d="M1656 1574 c-11 -29 -6 -54 11 -54 9 0 13 3 10 7 -9 8 12 33 29 33 7
0 18 -18 24 -40 6 -21 15 -42 21 -46 8 -4 8 -1 1 12 -5 11 -7 25 -5 31 3 7 -1
19 -9 28 -7 8 -19 21 -26 30 -17 20 -48 19 -56 -1z"/>
<path d="M2056 1570 c-10 -10 -15 -23 -11 -29 10 -17 25 -13 19 4 -9 22 9 18
24 -5 13 -21 32 -27 32 -11 0 6 -10 21 -22 35 -22 24 -23 24 -42 6z"/>
<path d="M110 1569 c0 -13 31 -18 55 -9 34 13 32 15 -15 15 -22 0 -40 -3 -40
-6z"/>
<path d="M2528 1572 c-9 -2 -16 -12 -15 -23 1 -21 8 -24 23 -10 5 5 17 11 27
13 17 3 17 3 0 14 -10 5 -26 8 -35 6z"/>
<path d="M2137 1543 c-12 -41 -1 -68 29 -74 37 -7 54 -1 54 18 0 13 -3 13 -16
3 -20 -18 -46 7 -46 44 0 29 -14 35 -21 9z"/>
<path d="M1307 1542 c-13 -20 2 -52 26 -52 18 0 19 1 5 13 -9 6 -18 21 -20 32
-2 14 -6 16 -11 7z"/>
<path d="M2015 1524 c0 -14 9 -32 19 -40 28 -20 42 -17 23 4 -10 10 -17 23
-17 29 0 6 -6 15 -13 21 -10 9 -13 5 -12 -14z"/>
<path d="M1788 1523 c-10 -2 -18 -11 -18 -20 0 -8 5 -12 13 -9 6 3 20 9 30 12
9 4 17 10 17 15 0 9 -13 10 -42 2z"/>
<path d="M2458 1508 c3 -12 10 -17 19 -14 8 3 17 6 19 6 2 0 4 4 4 9 0 5 -11
11 -24 13 -19 4 -22 1 -18 -14z"/>
<path d="M1237 1507 c-2 -7 0 -25 4 -42 5 -16 10 -46 13 -65 8 -60 17 -80 37
-80 20 0 26 16 10 22 -6 2 -13 26 -17 53 -3 28 -12 54 -20 58 -19 11 -18 35 1
39 13 2 12 5 -4 15 -15 10 -20 10 -24 0z"/>
<path d="M1595 1462 c-7 -60 -6 -70 10 -63 6 3 22 4 38 3 29 -1 32 4 17 28 -6
10 -10 11 -10 3 0 -7 -6 -13 -14 -13 -14 0 -10 50 4 60 4 3 -2 13 -15 22 l-23
17 -7 -57z"/>
<path d="M580 1489 c0 -48 70 -77 161 -66 53 7 61 -1 29 -33 -27 -27 -25 -30
10 -30 20 0 30 5 30 14 0 8 11 27 25 42 29 31 32 44 10 44 -8 0 -15 -6 -15
-14 0 -8 -4 -18 -10 -21 -5 -3 -7 0 -4 8 8 22 -9 28 -47 16 -19 -5 -52 -11
-73 -13 -35 -4 -44 0 -78 34 -30 30 -38 34 -38 19z"/>
<path d="M1480 1493 c0 -5 7 -17 15 -27 19 -25 19 -37 0 -30 -25 10 -17 -12
11 -31 l26 -17 -7 33 c-10 42 -46 101 -45 72z"/>
<path d="M1375 1480 c3 -5 11 -8 16 -5 5 4 16 0 24 -8 8 -9 24 -13 35 -10 36
9 15 28 -34 31 -32 2 -46 0 -41 -8z"/>
<path d="M2171 1435 c-16 -9 -30 -30 -37 -56 -12 -39 -11 -44 6 -56 21 -15 27
-57 10 -68 -5 -3 -10 -10 -10 -16 0 -15 18 -10 38 11 23 25 18 65 -11 85 -18
12 -19 18 -9 40 7 15 10 31 7 36 -4 5 -2 9 2 9 5 0 18 7 29 15 24 18 8 18 -25
0z"/>
<path d="M2032 1388 c5 -57 23 -74 37 -35 6 14 15 28 20 32 18 11 12 27 -8 20
-13 -4 -20 0 -24 15 -3 11 -10 20 -17 20 -8 0 -10 -17 -8 -52z"/>
<path d="M980 1405 c0 -8 -4 -15 -10 -15 -5 0 -10 -7 -10 -15 0 -8 -6 -15 -12
-15 -7 0 -5 -5 5 -11 22 -13 69 -8 75 9 2 7 -2 10 -12 6 -12 -4 -16 0 -16 16
0 20 2 21 17 9 11 -9 14 -10 9 -2 -4 7 -16 18 -27 23 -15 9 -19 7 -19 -5z"/>
<path d="M1710 1394 c-24 -24 -57 -34 -45 -14 3 6 1 10 -4 10 -6 0 -11 -7 -11
-16 0 -8 -4 -13 -9 -10 -5 3 -14 -1 -21 -8 -9 -12 -7 -17 9 -25 11 -6 27 -8
35 -5 10 4 27 -6 46 -26 l30 -32 15 36 c17 41 19 56 5 56 -5 0 -13 -12 -17
-27 l-6 -28 -9 30 c-5 19 -4 38 4 52 16 32 7 35 -22 7z"/>
<path d="M1810 1382 c0 -28 5 -45 14 -48 8 -3 17 -16 20 -28 9 -37 46 -77 70
-75 41 3 56 -1 56 -15 0 -13 14 -14 75 -6 13 2 -35 23 -55 25 -8 1 -36 7 -62
14 -40 11 -48 17 -54 45 -3 17 -15 39 -25 49 -11 10 -19 25 -19 35 0 9 -5 24
-10 32 -7 11 -10 4 -10 -28z"/>
<path d="M605 1390 l-60 -6 83 -4 c47 -3 81 -1 79 4 -4 12 -29 13 -102 6z"/>
<path d="M825 1370 c-2 -3 10 -12 26 -19 24 -10 36 -11 52 -2 12 6 14 9 5 7
-10 -3 -20 -1 -23 5 -4 5 -11 7 -16 4 -5 -4 -9 -2 -9 3 0 10 -29 12 -35 2z"/>
<path d="M1217 1358 c18 -24 3 -97 -24 -118 -14 -10 -22 -24 -18 -30 4 -7 -2
-14 -14 -17 -12 -3 -21 -6 -21 -7 -1 0 -9 -57 -20 -126 -10 -69 -22 -141 -26
-160 -7 -31 -6 -34 8 -22 17 13 29 71 28 133 0 26 9 47 35 80 37 46 59 106 49
132 -3 10 2 18 16 22 17 5 20 12 14 40 -3 19 -1 35 5 39 15 10 -5 46 -26 46
-11 0 -13 -4 -6 -12z m-27 -187 c0 -10 -7 -24 -15 -31 -12 -10 -15 -10 -15 3
0 23 11 47 21 47 5 0 9 -8 9 -19z"/>
<path d="M1380 1358 c0 -5 6 -11 14 -14 15 -6 10 -44 -5 -44 -5 0 -9 -5 -9
-10 0 -6 13 -4 29 5 30 15 30 15 62 -30 18 -24 35 -42 40 -40 4 3 14 -4 22
-15 7 -11 17 -17 21 -13 4 4 4 0 0 -10 -4 -11 -1 -17 8 -17 7 0 26 -11 41 -25
31 -30 34 -62 13 -142 -8 -29 -11 -53 -8 -54 4 0 28 0 54 1 52 2 108 -22 108
-46 0 -8 -5 -24 -10 -35 -9 -16 -7 -19 11 -19 17 0 19 3 10 14 -9 11 -8 15 5
20 22 8 26 8 19 -3 -8 -14 47 -53 67 -48 21 6 23 -4 6 -21 -9 -9 -8 -12 4 -12
9 0 19 7 22 16 3 8 12 12 18 9 7 -3 2 2 -11 12 -13 10 -35 29 -50 43 -25 24
-51 42 -81 56 -8 4 -31 17 -50 29 -19 12 -40 20 -47 18 -7 -3 -20 0 -30 6 -17
10 -17 10 0 11 21 0 23 16 2 24 -17 6 -20 42 -5 51 6 3 10 -3 10 -14 0 -11 5
-23 10 -26 6 -3 10 1 10 10 0 17 23 45 37 45 5 0 10 11 11 25 l2 25 -30 -22
c-34 -25 -54 -15 -55 25 0 15 -7 23 -23 25 -13 2 -26 11 -29 19 -8 20 -64 72
-79 73 -6 0 -21 11 -34 25 -20 21 -21 25 -6 25 10 0 14 5 11 11 -4 6 -14 8
-22 5 -18 -7 -53 11 -53 28 0 7 -7 13 -15 13 -8 0 -15 -4 -15 -9z"/>
<path d="M410 1331 c0 -11 39 -25 47 -18 3 3 2 10 -2 16 -8 13 -45 15 -45 2z"/>
<path d="M1344 1326 c-14 -10 -16 -17 -7 -27 6 -8 14 -25 18 -39 4 -14 15 -30
23 -36 9 -7 15 -29 16 -61 1 -28 4 -49 7 -47 3 1 6 -11 6 -29 1 -18 2 -53 3
-79 l2 -46 76 -4 c43 -2 78 -3 80 -2 2 1 -1 12 -8 23 -13 25 -30 28 -30 5 0
-12 -3 -14 -13 -6 -8 7 -29 9 -50 5 -30 -5 -36 -3 -36 13 -1 11 -4 36 -7 58
-5 27 -3 37 4 32 6 -4 9 -13 6 -21 -7 -18 13 -55 31 -55 8 0 15 7 15 15 0 21
23 19 53 -5 28 -22 60 -29 39 -8 -17 17 -15 29 3 22 8 -4 15 -1 15 4 0 13 -34
25 -73 26 -16 1 -35 10 -43 21 -9 13 -14 14 -14 5 0 -31 -20 8 -30 58 -5 29
-25 77 -44 107 -31 47 -33 56 -19 63 9 5 11 12 6 15 -6 4 -18 0 -29 -7z"/>
<path d="M2246 1305 c-3 -11 1 -26 9 -35 13 -13 15 -12 15 3 0 10 7 20 15 23
24 10 17 32 -9 30 -16 0 -27 -8 -30 -21z"/>
<path d="M477 1305 c9 -26 70 -43 189 -53 67 -6 131 -8 142 -5 17 4 20 1 15
-15 -2 -11 0 -23 6 -26 10 -6 15 6 12 27 0 4 9 7 21 7 14 0 18 4 13 9 -8 8
-78 17 -159 20 -12 1 -16 6 -12 16 7 19 -10 20 -21 1 -6 -10 -22 -12 -77 -5
-37 5 -73 12 -80 17 -21 17 -55 21 -49 7z"/>
<path d="M930 1308 c0 -10 55 -38 75 -38 8 0 15 5 15 10 0 6 -4 10 -10 10 -5
0 -10 7 -10 15 0 12 -9 15 -35 13 -19 -1 -35 -6 -35 -10z"/>
<path d="M2070 1276 c0 -12 -6 -15 -25 -10 -15 4 -25 2 -25 -4 0 -17 61 -26
71 -11 11 17 7 31 -9 37 -7 2 -12 -4 -12 -12z"/>
<path d="M114 1258 c2 -16 11 -24 29 -26 31 -4 36 14 7 23 -11 3 -20 11 -20
16 0 5 -4 9 -10 9 -5 0 -8 -10 -6 -22z"/>
<path d="M880 1265 c7 -8 19 -15 26 -15 10 0 12 -10 8 -40 -4 -26 -2 -40 5
-40 6 0 11 7 11 16 0 9 5 12 12 8 7 -5 8 -3 4 5 -5 7 -1 20 9 31 16 17 15 18
-14 25 -17 4 -33 11 -36 16 -4 5 -13 9 -22 9 -13 0 -13 -3 -3 -15z"/>
<path d="M1651 1273 c0 -7 0 -15 2 -17 1 -2 -7 -13 -17 -25 -11 -12 -17 -24
-13 -27 10 -10 39 44 34 63 -3 10 -5 12 -6 6z"/>
<path d="M1001 1251 c-7 -5 -12 -11 -12 -15 4 -25 -1 -36 -16 -36 -9 0 -13 -3
-10 -7 4 -3 -3 -17 -15 -30 -26 -28 -10 -31 22 -3 13 11 26 20 30 20 8 0 24
69 18 75 -2 2 -9 0 -17 -4z"/>
<path d="M1267 1247 c-4 -10 -2 -17 3 -17 5 0 18 -10 30 -22 28 -30 25 -10 -3
26 -20 25 -25 27 -30 13z"/>
<path d="M1750 1232 c0 -20 -7 -32 -22 -39 -27 -12 -51 -6 -41 10 3 7 -3 3
-15 -7 -27 -23 -24 -27 20 -28 38 -1 70 10 63 23 -3 4 4 13 15 19 16 9 18 15
10 30 -15 29 -30 24 -30 -8z"/>
<path d="M475 1240 c-6 -9 8 -15 29 -11 5 1 15 -7 23 -18 14 -21 70 -41 114
-41 15 0 35 -11 47 -25 12 -14 29 -25 37 -25 23 0 18 8 -15 25 -17 9 -28 20
-25 25 4 7 -76 30 -107 30 -6 0 -26 11 -44 25 -35 27 -49 31 -59 15z"/>
<path d="M2210 1246 c0 -11 27 -36 39 -36 6 0 11 -7 11 -16 0 -14 2 -14 15 0
25 24 19 47 -10 40 -15 -4 -32 -1 -40 6 -8 7 -15 9 -15 6z"/>
<path d="M2377 1214 c-17 -18 -4 -26 33 -21 22 3 40 1 40 -4 0 -5 5 -9 10 -9
6 0 10 6 10 14 0 19 -60 32 -70 16 -6 -9 -9 -9 -11 -1 -3 7 -8 9 -12 5z"/>
<path d="M690 1198 c0 -33 27 -51 76 -52 52 -1 78 -11 69 -27 -7 -10 24 -1 42
13 7 6 14 2 18 -12 7 -22 26 -23 33 -2 2 7 -2 10 -11 6 -8 -3 -17 2 -20 10 -4
9 -18 16 -32 16 -14 0 -25 4 -25 9 0 5 -12 9 -27 8 -77 -1 -103 4 -103 17 0 8
-4 18 -10 21 -5 3 -10 0 -10 -7z"/>
<path d="M1820 1200 c-8 -5 -11 -12 -8 -15 10 -10 89 5 82 16 -7 12 -55 11
-74 -1z"/>
<path d="M2076 1160 c5 -30 8 -70 8 -88 0 -19 4 -31 10 -29 18 6 11 137 -9
156 -16 15 -16 12 -9 -39z"/>
<path d="M1230 1188 c0 -8 18 -40 40 -71 22 -30 40 -65 40 -76 0 -32 17 -25
24 11 4 19 2 34 -5 39 -6 4 -8 12 -5 18 4 6 2 11 -3 11 -6 0 -11 7 -11 16 0
11 -6 15 -19 11 -21 -5 -36 17 -24 36 3 7 3 9 -2 5 -4 -4 -14 -3 -22 3 -10 9
-13 8 -13 -3z"/>
<path d="M1938 1155 c29 -48 48 -59 37 -22 -11 35 -34 67 -50 67 -10 0 -7 -12
13 -45z"/>
<path d="M2126 1172 c0 -16 10 -49 21 -73 20 -44 30 -104 15 -96 -13 9 -6 -53
8 -66 10 -9 11 -9 6 1 -12 20 33 140 65 177 27 30 28 34 13 49 -15 16 -34 14
-34 -4 0 -5 7 -7 15 -4 11 5 13 2 9 -10 -3 -9 -9 -14 -13 -11 -4 2 -15 -11
-24 -30 -9 -19 -21 -35 -27 -35 -9 0 -15 30 -11 54 1 4 -4 15 -11 23 -9 11 -9
16 1 23 17 10 5 30 -17 30 -12 0 -17 -8 -16 -28z"/>
<path d="M574 1156 c-8 -20 5 -39 22 -32 14 5 19 -14 15 -55 -1 -9 10 -24 24
-33 29 -19 30 -18 10 20 -8 16 -15 41 -15 55 0 33 -46 70 -56 45z"/>
<path d="M1760 1139 c0 -16 4 -28 9 -25 5 3 11 0 14 -8 3 -7 -8 -26 -24 -42
-16 -15 -29 -36 -29 -46 0 -21 11 -23 28 -6 9 9 21 8 52 -2 22 -7 43 -11 45
-8 3 3 -8 20 -25 37 -34 33 -33 59 0 38 11 -6 20 -17 20 -24 0 -17 17 -25 26
-12 4 8 3 9 -4 5 -7 -4 -12 -1 -12 8 0 8 -9 21 -20 29 -11 7 -27 30 -35 50
-19 46 -45 49 -45 6z"/>
<path d="M1498 1142 c-28 -17 -36 -32 -19 -32 6 0 13 5 16 10 5 8 11 8 20 0
11 -9 12 -7 8 10 -4 16 -2 19 11 14 9 -3 16 -1 16 5 0 16 -21 13 -52 -7z"/>
<path d="M2484 1145 c-7 -17 21 -65 36 -65 6 0 9 3 8 8 0 4 3 16 7 26 6 14 3
23 -10 32 -24 18 -34 18 -41 -1z"/>
<path d="M976 1135 c-18 -13 -14 -41 5 -30 5 4 9 2 9 -2 0 -21 -38 -31 -78
-21 -35 9 -43 7 -61 -11 -25 -25 -27 -35 -6 -27 14 5 17 -3 15 -39 0 -3 13
-20 30 -38 17 -17 34 -45 37 -60 3 -16 12 -31 19 -34 8 -3 14 -13 14 -23 0
-11 5 -22 10 -25 15 -9 12 -35 -5 -35 -9 0 -12 6 -9 15 4 8 1 15 -5 15 -6 0
-11 -8 -12 -17 0 -17 -1 -17 -8 0 -6 18 -7 18 -23 0 -11 -13 -13 -24 -7 -41 7
-18 14 -21 36 -16 49 11 87 32 122 68 l35 36 -25 26 c-26 28 -59 48 -99 58
-17 4 -12 0 13 -14 39 -21 57 -52 57 -96 0 -37 -32 -27 -45 14 -6 17 -18 38
-26 44 -14 12 -49 62 -49 71 0 1 10 4 22 4 13 1 28 10 35 19 15 21 17 68 3 59
-5 -3 -10 -12 -10 -20 0 -25 -33 -27 -52 -3 -22 28 -19 52 6 56 14 3 17 0 13
-12 -5 -12 -3 -14 11 -7 9 5 25 12 35 15 12 4 17 16 17 46 0 22 -1 40 -2 40
-2 0 -11 -7 -22 -15z"/>
<path d="M787 1125 c4 -12 1 -16 -13 -15 -33 4 -45 0 -39 -10 3 -5 2 -10 -3
-10 -14 0 -53 -68 -42 -75 4 -3 6 -14 3 -24 -3 -12 2 -23 15 -30 24 -13 36 -3
20 17 -17 20 -19 42 -3 42 7 0 16 7 19 16 9 23 8 27 -9 20 -20 -7 -19 1 4 30
11 14 22 20 25 15 4 -5 2 -12 -4 -16 -19 -12 -10 -23 40 -54 28 -17 50 -27 50
-21 0 5 -9 14 -20 20 -11 6 -17 16 -14 25 4 9 -1 18 -11 21 -11 5 -15 14 -11
30 3 12 2 26 -4 29 -6 4 -7 -1 -3 -10z"/>
<path d="M2000 1098 c0 -19 5 -39 11 -45 15 -15 13 -86 -3 -120 -21 -43 -49
-36 -78 19 -14 27 -29 48 -34 48 -9 0 -8 -5 26 -101 l23 -67 46 -6 c51 -7 94
-35 104 -67 11 -34 30 -15 37 37 4 27 10 66 14 87 4 23 2 37 -4 37 -6 0 -12
-19 -14 -42 -3 -39 -6 -43 -32 -46 -18 -2 -26 0 -21 7 4 8 -1 8 -19 1 -17 -6
-36 -6 -56 1 -32 12 -41 29 -14 29 9 0 14 6 11 13 -5 15 20 41 27 28 3 -5 20
-14 36 -20 29 -10 30 -9 24 14 -4 18 -1 27 10 31 11 4 14 13 11 24 -3 10 -1
21 5 25 17 10 11 23 -8 18 -12 -3 -22 -19 -28 -41 -7 -27 -15 -38 -31 -40 -27
-4 -28 1 -7 33 9 14 14 32 10 40 -3 9 0 15 9 15 20 0 8 30 -24 57 -22 19 -23
22 -8 23 24 0 19 33 -6 38 -13 3 -17 -4 -17 -30z"/>
<path d="M537 1113 c-14 -13 -6 -33 13 -33 11 0 20 4 20 9 0 13 -26 32 -33 24z"/>
<path d="M1218 1090 c-3 -16 -3 -28 0 -25 5 4 32 -20 32 -29 0 -3 -6 -6 -13
-6 -7 0 -21 -11 -31 -25 -11 -14 -29 -25 -42 -25 -13 0 -24 -4 -24 -10 0 -5 7
-10 15 -10 8 0 15 -7 15 -15 0 -8 -4 -15 -10 -15 -13 0 -13 -37 0 -45 6 -3 13
2 17 11 4 10 14 26 22 36 9 10 18 28 21 40 3 12 11 23 17 25 7 3 9 -4 6 -16
-4 -16 -1 -21 15 -21 17 0 20 6 19 40 -1 22 -5 40 -8 40 -4 0 -14 18 -23 40
-9 22 -18 40 -20 40 -2 0 -6 -13 -8 -30z"/>
<path d="M2306 1082 c-3 -6 -1 -12 5 -14 8 -3 4 -26 -10 -72 -12 -38 -19 -71
-17 -74 7 -7 33 60 40 104 6 39 -5 76 -18 56z"/>
<path d="M2330 1021 c0 -12 32 -31 54 -31 22 0 20 16 -1 23 -10 2 -26 8 -35
12 -11 4 -18 3 -18 -4z"/>
<path d="M750 991 c0 -10 24 -21 46 -21 8 0 14 7 14 15 0 10 -10 15 -30 15
-16 0 -30 -4 -30 -9z"/>
<path d="M355 964 c-11 -11 -13 -20 -6 -27 15 -15 41 0 41 23 0 24 -13 26 -35
4z"/>
<path d="M829 968 c-1 -7 -1 -16 0 -20 0 -5 -8 -8 -20 -8 -11 0 -17 -4 -14
-10 3 -5 19 -10 35 -10 16 0 32 -4 35 -10 3 -5 10 -10 16 -10 5 0 9 5 9 10 0
6 -6 10 -13 10 -17 0 -44 33 -39 48 2 7 1 12 -2 12 -3 0 -7 -6 -7 -12z"/>
<path d="M704 928 c-5 -7 -9 -20 -8 -28 1 -8 2 -20 3 -26 0 -5 11 -21 24 -34
12 -14 22 -27 22 -30 1 -16 40 -60 52 -60 13 0 13 3 3 15 -7 8 -9 15 -5 15 5
0 -13 21 -39 46 -47 47 -48 50 -29 102 3 6 1 12 -5 12 -5 0 -14 -6 -18 -12z"/>
<path d="M2250 911 c0 -6 5 -11 10 -11 6 0 10 -10 10 -22 0 -17 3 -19 12 -10
9 9 10 17 2 29 -13 20 -34 29 -34 14z"/>
<path d="M786 885 c-8 -33 -1 -45 30 -45 31 0 31 20 0 49 l-24 22 -6 -26z"/>
<path d="M1680 901 c0 -9 28 -41 35 -41 3 0 2 7 -1 15 -4 8 -1 15 5 15 6 0 11
5 11 10 0 6 -11 10 -25 10 -14 0 -25 -4 -25 -9z"/>
<path d="M1597 893 c-4 -3 -51 -5 -104 -4 -54 1 -95 0 -93 -3 7 -6 116 -19
159 -18 32 1 60 16 50 27 -3 3 -9 2 -12 -2z"/>
<path d="M866 863 c8 -33 12 -39 20 -30 9 9 -5 57 -16 57 -6 0 -8 -11 -4 -27z"/>
<path d="M1670 826 c-29 -29 8 -62 78 -72 29 -3 55 -11 58 -15 3 -5 14 -9 24
-9 37 0 160 -44 160 -57 0 -10 -26 -13 -110 -13 -98 0 -110 2 -110 18 0 13 -2
14 -9 4 -8 -14 -113 -13 -127 1 -11 11 -26 8 -19 -3 3 -5 -9 -9 -30 -8 -19 1
-38 -2 -42 -5 -3 -4 32 -7 80 -7 51 0 89 -4 93 -11 3 -6 17 -9 30 -6 22 4 80
-3 142 -18 12 -3 22 -12 22 -20 0 -7 5 -17 11 -21 7 -4 10 4 7 22 -3 27 1 30
42 42 25 7 56 18 70 24 24 9 21 11 -35 29 -33 10 -69 22 -80 27 -22 10 -65 23
-135 41 -25 7 -56 21 -70 32 -23 18 -23 20 -4 14 14 -3 24 0 27 8 6 16 -58 18
-73 3z"/>
<path d="M840 799 c0 -23 6 -24 26 -5 18 19 18 21 -6 23 -14 1 -20 -4 -20 -18z"/>
<path d="M1156 812 c-2 -4 10 -9 29 -10 18 -2 36 2 40 8 4 6 -7 10 -29 10 -19
0 -37 -4 -40 -8z"/>
<path d="M1205 770 c-3 -5 -15 -10 -26 -10 -10 0 -28 -9 -39 -20 -16 -16 -17
-20 -5 -20 9 0 18 6 21 14 3 8 12 12 19 10 7 -3 23 4 34 15 12 12 17 21 12 21
-6 0 -13 -4 -16 -10z"/>
<path d="M1605 762 c-34 -18 -114 -32 -120 -22 -2 4 -21 7 -42 7 -21 0 -28 -2
-15 -4 12 -2 22 -8 22 -12 0 -15 -47 -51 -66 -51 -18 -1 -18 -1 -1 -11 10 -6
30 -8 43 -5 20 5 24 11 19 27 -6 18 -4 19 13 10 11 -6 22 -17 26 -26 3 -8 11
-15 18 -15 10 0 10 2 -1 9 -17 11 -6 31 17 31 10 0 28 7 40 16 12 8 27 12 32
9 6 -3 10 -1 10 5 0 6 11 15 25 20 14 5 25 14 25 20 0 13 -8 12 -45 -8z"/>
<path d="M1053 752 c-24 -2 -43 -7 -43 -12 0 -5 20 -23 45 -41 26 -18 43 -38
41 -46 -3 -7 -1 -15 4 -18 10 -6 14 -45 5 -45 -3 0 -18 8 -32 17 -19 13 -28
14 -31 5 -5 -16 -37 15 -37 36 0 9 -7 18 -15 20 -13 5 -13 3 -1 -11 16 -20 1
-23 -19 -4 -7 6 -3 -2 11 -20 16 -22 41 -38 78 -50 37 -12 56 -24 62 -40 16
-44 19 -26 6 47 -4 19 -9 55 -11 80 -7 59 -11 79 -17 82 -2 2 -23 2 -46 0z
m44 -35 c3 -5 1 -7 -5 -3 -6 3 -14 2 -17 -4 -7 -11 -35 5 -35 20 0 10 49 0 57
-13z"/>
<path d="M2230 724 c-14 -36 -13 -43 8 -39 75 15 72 14 60 40 -15 34 -55 34
-68 -1z"/>
<path d="M864 726 c-3 -9 -13 -16 -21 -16 -8 0 -12 -4 -8 -9 3 -5 1 -12 -5
-16 -5 -3 -10 -13 -10 -21 0 -19 63 -84 82 -84 16 0 72 -56 81 -81 10 -30 157
-48 157 -19 0 12 -12 14 -61 12 -60 -4 -62 -3 -96 35 -19 21 -48 56 -64 77
-16 21 -29 33 -29 25 0 -11 -2 -11 -10 1 -13 20 -13 33 0 25 6 -3 7 1 4 9 -3
9 -10 16 -15 16 -5 0 -9 5 -9 10 0 19 48 10 63 -12 11 -16 16 -18 16 -8 1 8
-15 28 -34 43 -29 23 -36 25 -41 13z"/>
<path d="M347 708 c-7 -25 -3 -33 12 -23 13 8 15 45 2 45 -5 0 -11 -10 -14
-22z"/>
<path d="M2075 710 c-4 -12 -2 -27 4 -33 13 -13 20 -7 23 23 4 30 -18 38 -27
10z"/>
<path d="M1260 712 c0 -4 -13 -16 -30 -25 -32 -19 -39 -44 -15 -53 8 -4 15
-18 15 -33 0 -18 3 -22 9 -13 7 11 9 11 14 -2 13 -33 -34 -108 -61 -100 -13 5
-14 4 -3 -4 16 -12 73 19 96 51 10 15 15 17 15 7 0 -9 9 -21 19 -27 16 -10 20
-10 23 5 2 11 -11 27 -34 45 -21 15 -38 33 -38 41 0 7 -11 21 -25 30 -14 9
-25 21 -25 26 0 16 32 12 51 -6 12 -11 27 -14 48 -9 38 8 40 25 4 26 -16 0
-37 4 -48 9 -18 7 -18 8 7 15 16 4 25 11 22 16 -6 11 -44 12 -44 1z"/>
<path d="M2152 683 c-11 -10 -23 -33 -27 -50 -6 -28 -4 -33 13 -33 11 0 30 9
43 20 l24 20 -28 -10 c-37 -13 -37 -13 -37 11 0 14 5 19 14 16 16 -6 36 11 36
30 0 18 -14 16 -38 -4z"/>
<path d="M6 650 c4 -24 13 -50 22 -56 13 -10 13 -12 -2 -17 -25 -10 -19 -27 9
-27 14 0 25 -4 25 -10 0 -5 -11 -10 -25 -10 -18 0 -25 -5 -25 -20 0 -21 15
-27 25 -10 3 6 16 10 28 10 18 0 19 -2 7 -10 -12 -8 -12 -10 5 -10 16 0 17 -2
5 -10 -12 -7 -10 -11 10 -19 21 -8 17 -10 -27 -10 -29 -1 -53 -5 -53 -10 0 -5
18 -7 41 -5 23 2 49 -1 58 -6 13 -8 12 -10 -9 -11 -21 -1 -20 -2 10 -11 63
-18 60 -31 -5 -24 -33 4 -68 9 -77 12 -10 3 -18 1 -18 -4 0 -5 37 -14 82 -20
99 -14 136 -38 43 -28 -33 4 -75 10 -92 13 -20 3 -33 1 -33 -5 0 -6 39 -13 88
-17 121 -10 140 -26 22 -19 -52 3 -98 8 -102 11 -5 2 -8 0 -8 -5 0 -14 26 -22
69 -22 48 0 152 -19 171 -32 10 -6 -8 -7 -55 -3 -194 17 -185 17 -185 1 0 -9
8 -16 20 -16 11 0 20 5 20 11 0 8 4 8 13 2 6 -6 48 -13 92 -16 81 -6 173 -28
145 -34 -9 -2 -62 0 -118 4 -95 8 -125 4 -86 -11 9 -4 56 -11 103 -15 47 -5
93 -12 101 -14 8 -3 27 -8 43 -11 34 -8 36 -26 1 -26 -39 0 -19 -17 28 -24 48
-7 87 -26 56 -26 -10 0 -18 -4 -18 -10 0 -5 5 -10 11 -10 5 0 7 -4 4 -10 -11
-17 -33 -11 -28 8 4 15 -6 20 -69 29 -40 7 -89 12 -108 12 -19 0 -74 9 -122
19 -71 15 -88 16 -88 5 0 -7 7 -13 15 -13 8 0 47 -11 87 -24 40 -13 101 -26
135 -30 54 -6 62 -5 57 9 -7 17 4 19 26 5 13 -9 13 -11 0 -20 -13 -8 -12 -10
5 -11 51 -5 119 -20 125 -28 4 -7 130 -23 130 -17 0 2 -24 18 -52 36 -58 37
-181 143 -237 204 -20 21 -52 56 -71 77 -41 45 -100 123 -100 133 0 5 -10 22
-22 39 -13 18 -42 70 -66 117 -41 81 -42 83 -36 40z"/>
<path d="M1475 634 c22 -15 50 -36 61 -46 12 -11 24 -15 28 -10 6 10 -31 39
-81 65 -48 26 -53 20 -8 -9z"/>
<path d="M550 629 c0 -38 61 -66 74 -33 6 16 -20 39 -29 24 -9 -15 -25 -12
-25 5 0 8 -4 15 -10 15 -5 0 -10 -5 -10 -11z"/>
<path d="M1603 610 c1 -11 7 -20 15 -20 8 0 16 -9 19 -20 3 -10 14 -22 24 -25
11 -4 24 -15 29 -26 6 -10 17 -19 24 -19 7 0 25 -11 41 -26 35 -33 45 -23 11
11 -14 14 -26 28 -26 31 0 2 27 4 60 3 46 -2 65 2 80 16 27 24 25 38 -2 29
-21 -6 -22 -5 -8 11 14 17 13 18 -3 12 -10 -4 -21 -7 -23 -7 -2 0 -4 -7 -4
-15 0 -8 7 -15 16 -15 8 0 12 -4 9 -10 -16 -26 -150 8 -216 55 -42 30 -47 32
-46 15z"/>
<path d="M416 564 c-8 -22 2 -33 14 -14 7 11 11 11 24 1 9 -8 16 -21 16 -30 0
-18 18 -41 32 -41 16 0 7 22 -24 61 -34 42 -52 49 -62 23z"/>
<path d="M725 555 c-26 -27 -32 -45 -15 -45 6 0 12 0 15 0 3 0 5 2 5 5 -1 3 6
13 15 21 14 14 21 44 10 44 -2 0 -16 -11 -30 -25z"/>
<path d="M1345 555 c17 -13 36 -24 43 -25 8 0 11 -9 8 -25 -5 -27 16 -45 54
-45 28 0 21 24 -8 28 -12 2 -20 7 -17 12 3 5 12 7 20 3 36 -13 10 9 -48 42
-74 41 -94 45 -52 10z"/>
<path d="M1592 520 c-8 -13 -18 -17 -29 -13 -16 6 -16 5 -4 -10 11 -14 11 -17
0 -17 -8 0 4 -12 24 -26 21 -14 41 -23 44 -20 3 3 -6 11 -21 17 -19 9 -26 19
-24 33 3 21 9 23 39 11 11 -4 18 0 21 13 4 16 1 18 -15 14 -14 -3 -18 -1 -13
6 4 7 3 12 -1 12 -5 0 -14 -9 -21 -20z"/>
<path d="M700 461 c0 -12 29 -35 36 -28 11 10 -5 37 -21 37 -8 0 -15 -4 -15
-9z"/>
<path d="M1710 424 c-14 -7 -33 -13 -42 -14 -18 0 -34 -18 -24 -27 4 -4 12 -1
18 5 7 7 29 12 50 12 26 0 38 4 38 14 0 22 -13 26 -40 10z"/>
<path d="M594 414 c3 -9 6 -18 6 -20 0 -2 7 -4 15 -4 18 0 19 12 3 28 -17 17
-31 15 -24 -4z"/>
<path d="M1140 415 c0 -11 7 -15 23 -13 12 2 22 8 22 13 0 6 -10 11 -22 13
-16 2 -23 -2 -23 -13z"/>
<path d="M2824 422 c3 -5 29 -10 58 -11 28 -1 50 0 47 2 -9 9 -110 17 -105 9z"/>
<path d="M424 384 c3 -9 6 -20 6 -25 0 -15 20 -10 27 7 3 9 0 20 -8 25 -21 13
-32 11 -25 -7z"/>
<path d="M2828 342 c-69 -2 -108 -7 -108 -14 0 -6 9 -8 23 -4 12 3 73 6 135 6
65 0 112 4 112 10 0 5 -12 8 -27 7 -16 -1 -76 -3 -135 -5z"/>
<path d="M750 315 c0 -8 7 -15 15 -15 8 0 15 -4 15 -10 0 -19 15 -10 27 15 11
24 10 25 -23 25 -24 0 -34 -5 -34 -15z"/>
<path d="M1750 290 c0 -20 25 -38 36 -27 8 7 -15 47 -26 47 -6 0 -10 -9 -10
-20z"/>
<path d="M2855 273 c-33 -2 -64 -9 -70 -15 -7 -8 -3 -9 15 -4 14 3 62 6 108 6
48 0 82 4 82 10 0 10 -13 10 -135 3z"/>
<path d="M2958 243 c-27 -7 -21 -23 7 -21 14 1 25 8 25 15 0 13 -3 14 -32 6z"/>
<path d="M479 224 c-10 -13 -10 -17 2 -25 25 -16 36 -10 31 16 -5 29 -14 31
-33 9z"/>
<path d="M861 226 c-14 -17 -4 -26 31 -26 22 0 29 4 26 17 -4 20 -42 27 -57 9z"/>
<path d="M1073 213 c-7 -2 -13 -15 -13 -28 0 -31 36 -41 51 -13 9 16 7 20 -10
25 -11 3 -18 9 -15 14 6 10 5 10 -13 2z"/>
<path d="M1296 212 c-3 -6 -3 -17 0 -26 3 -9 1 -16 -5 -16 -6 0 -11 -4 -11
-10 0 -19 28 -10 33 12 7 25 -7 57 -17 40z"/>
<path d="M2803 203 c-40 -2 -73 -8 -73 -13 0 -14 89 -11 185 5 l80 13 -60 -1
c-33 -1 -93 -3 -132 -4z"/>
<path d="M10 180 c0 -5 10 -12 23 -14 12 -3 49 -11 82 -19 76 -18 200 -23 190
-7 -4 6 -20 8 -38 5 -19 -4 -71 4 -132 20 -110 28 -125 30 -125 15z"/>
<path d="M2710 153 c-19 -3 -39 -8 -43 -12 -4 -4 21 -4 55 0 35 5 79 10 98 12
20 2 11 4 -20 4 -30 0 -71 -2 -90 -4z"/>
<path d="M2900 140 c-52 -7 -73 -10 -207 -26 -29 -3 -51 -11 -50 -16 1 -6 -4
-13 -11 -15 -8 -3 -10 1 -5 13 4 12 2 15 -8 12 -8 -3 -13 -10 -12 -16 2 -6
-15 -17 -37 -23 -22 -7 -40 -16 -40 -21 0 -4 -11 -8 -24 -8 -14 0 -27 -4 -31
-10 -3 -5 -21 -8 -40 -6 -19 1 -40 -2 -47 -6 -8 -6 14 -8 54 -6 41 3 74 10 85
19 10 9 53 24 96 34 42 11 77 22 77 26 0 3 35 9 78 12 188 16 212 20 212 33 0
15 -6 15 -90 4z"/>
<path d="M953 119 c-24 -9 -31 -29 -10 -29 19 0 40 16 36 28 -3 6 -13 6 -26 1z"/>
<path d="M1577 116 c-3 -8 1 -17 10 -20 20 -8 27 -1 20 19 -8 19 -23 20 -30 1z"/>
<path d="M10 91 c0 -17 8 -21 79 -37 7 -1 23 -12 35 -23 23 -22 56 -28 56 -11
0 6 -3 9 -7 9 -27 -4 -35 1 -23 16 10 12 7 15 -17 20 -15 4 -49 15 -75 25 -46
18 -48 18 -48 1z"/>
<path d="M2895 90 c-45 -8 -38 -13 15 -10 19 1 32 -1 29 -5 -10 -10 -109 -13
-115 -4 -9 15 -24 10 -25 -8 0 -11 -3 -13 -6 -5 -2 6 -12 12 -20 12 -13 0 -11
-4 5 -19 l22 -18 -23 -12 c-19 -10 -19 -11 -2 -7 11 3 40 12 65 21 25 9 69 17
98 17 48 1 52 3 52 25 0 25 -15 27 -95 13z"/>
<path d="M700 68 c0 -9 -5 -18 -11 -20 -7 -2 -10 -10 -8 -17 3 -8 18 0 44 23
l40 35 -32 -2 c-23 -1 -33 -7 -33 -19z"/>
<path d="M904 66 c-18 -14 -18 -15 -1 -22 22 -8 46 11 31 26 -7 7 -17 5 -30
-4z"/>
<path d="M2695 51 c-6 -5 -32 -16 -60 -24 l-50 -15 71 0 c39 0 77 4 85 10 11
8 10 9 -3 4 -21 -6 -25 19 -5 27 6 3 3 6 -8 6 -12 1 -25 -3 -30 -8z"/>
<path d="M10 28 c0 -14 7 -17 39 -15 46 2 39 22 -9 29 -24 4 -30 1 -30 -14z"/>
<path d="M194 41 c4 -6 17 -12 29 -12 17 -1 15 -3 -8 -9 -23 -6 -12 -8 43 -9
76 -1 90 12 25 22 -21 4 -51 10 -67 13 -21 5 -27 4 -22 -5z"/>
<path d="M2900 20 c-30 -6 -26 -8 28 -9 35 0 62 3 62 9 0 11 -37 11 -90 0z"/>
</g>
</svg>
